<svg width="146" height="21" viewBox="0 0 146 21" fill="none" xmlns="http://www.w3.org/2000/svg">
<g clip-path="url(#clip0_1_3)">
<path d="M0 0.06C0.183892 1.07269 0.558417 1.99709 1.08424 2.73612C1.61006 3.47516 2.26778 4.00154 2.9883 4.26H7.68421L7.89766 4.32V20.88H10.8006V4.38L11.0994 4.2H15.7953C16.5138 3.93575 17.1694 3.40743 17.6945 2.66931C18.2197 1.93118 18.5956 1.00987 18.7836 0L0 0V0.06ZM101.858 0.06H98.9556V20.94H112.275C112.906 20.6047 113.469 20.0577 113.916 19.3466C114.362 18.6355 114.678 17.7819 114.836 16.86H101.901V0L101.858 0.06ZM79.5316 4.14C81.0684 3.54 82.3491 1.86 82.6906 0L66.4257 0.06V12.42H79.7023V16.74H69.286C68.4907 17.0308 67.7484 17.5555 67.1081 18.2796C66.4679 19.0036 65.9443 19.9104 65.5719 20.94H82.6053V8.34H69.286V4.14H79.5316ZM129.137 20.94H131.998V12.54H142.499V20.94H145.36V8.34H129.137V20.94ZM36.4146 4.2H47.514C48.2445 3.95716 48.9134 3.43705 49.4479 2.69641C49.9824 1.95577 50.3619 1.02305 50.545 0L33.4263 0C33.606 1.01556 33.9791 1.94315 34.5056 2.68312C35.0321 3.4231 35.692 3.9475 36.4146 4.2ZM36.4146 12.48H47.514C48.2445 12.2372 48.9134 11.717 49.4479 10.9764C49.9824 10.2358 50.3619 9.30305 50.545 8.28H33.4263C33.606 9.29556 33.9791 10.2231 34.5056 10.9631C35.0321 11.7031 35.692 12.2275 36.4146 12.48ZM36.4146 20.94H47.514C48.2445 20.6972 48.9134 20.177 49.4479 19.4364C49.9824 18.6958 50.3619 17.7631 50.545 16.74H33.4263C33.606 17.7556 33.9791 18.6831 34.5056 19.4231C35.0321 20.1631 35.692 20.6875 36.4146 20.94ZM131.699 4.2H142.798C143.521 3.9475 144.181 3.4231 144.707 2.68312C145.234 1.94315 145.607 1.01556 145.787 0L128.711 0C128.89 1.01556 129.263 1.94315 129.79 2.68312C130.316 3.4231 130.976 3.9475 131.699 4.2Z" fill="black"/>
</g>
<defs>
<clipPath id="clip0_1_3">
<rect width="146" height="21" fill="white"/>
</clipPath>
</defs>
</svg>
