<svg width="30" height="24" viewBox="0 0 30 24" fill="none" xmlns="http://www.w3.org/2000/svg">
<path fill-rule="evenodd" clip-rule="evenodd" d="M15.75 1.20001V6.36721L15.7933 6.36729C19.4644 6.30208 22.7 5.78039 25.5 4.80221V6.00001C22.6894 6.93687 19.44 7.43488 15.7517 7.49403L15.75 11.394H29.25V12.594H15.75L15.7516 16.506C19.1775 16.5609 22.2247 16.9945 24.8933 17.8067L25.5 18V19.1978C22.5 18.1498 19 17.6257 15 17.6257L15.75 17.6316V22.8H14.25L14.2498 17.632C10.5609 17.694 7.31096 18.2166 4.5 19.2V18C7.5 17 11 16.5 15 16.5L14.25 16.506V12.594H0.75V11.394H14.25V7.49281L14.2067 7.49335C10.5356 7.43112 7.3 6.93335 4.5 6.00001V4.80001C7.31098 5.7834 10.5609 6.30607 14.2499 6.36803L14.25 1.20001H15.75Z" fill="black"/>
<path fill-rule="evenodd" clip-rule="evenodd" d="M15.0017 1.5C15.8584 1.5 16.6701 1.76131 17.413 2.21678C18.2566 2.73406 19.009 3.4963 19.644 4.43632C20.9516 6.37203 21.75 9.04776 21.75 12C21.75 14.9522 20.9516 17.628 19.644 19.5637C19.009 20.5037 18.2566 21.2659 17.413 21.7832C16.6701 22.2387 15.8584 22.5 15.0017 22.5C14.1448 22.5 13.3327 22.2386 12.5894 21.783C11.7454 21.2655 10.9926 20.5031 10.3572 19.5629C9.04901 17.6273 8.25 14.9519 8.25 12C8.25 9.04814 9.04901 6.37272 10.3572 4.43709C10.9926 3.49686 11.7454 2.73445 12.5894 2.21703C13.3327 1.76141 14.1448 1.5 15.0017 1.5Z" stroke="black"/>
<path fill-rule="evenodd" clip-rule="evenodd" d="M15 0C23.2843 0 30 5.37258 30 12C30 18.6274 23.2843 24 15 24C6.71573 24 0 18.6274 0 12C0 5.37258 6.71573 0 15 0ZM15 1.8C7.95837 1.8 2.25 6.3667 2.25 12C2.25 17.6333 7.95837 22.2 15 22.2C22.0416 22.2 27.75 17.6333 27.75 12C27.75 6.3667 22.0416 1.8 15 1.8Z" fill="black"/>
</svg>
